<?xml version="1.0"?>
<svg xmlns="http://www.w3.org/2000/svg" xmlns:xlink="http://www.w3.org/1999/xlink" version="1.1" id="Layer_1" x="0px" y="0px" viewBox="0 0 512 512" style="enable-background:new 0 0 512 512;" xml:space="preserve" width="512px" height="512px" class=""><g><path style="fill:#C08B2B" d="M255.955,0L130.505,217.287h-22.343v38.698L33.86,384.683h250.971v22.756l44.692-22.756H478.14  L351.838,166.011v-22.756l-22.337-15.916L255.955,0z M256,77.392l28.83,49.927v27.318l22.345,11.378l103.927,179.973h-59.233  v-22.756l-44.692,22.756H100.898l29.615-51.286h22.345v-38.696L256,77.392z" data-original="#33A6F2" class="active-path" data-old_color="#C18C2B"/><g>
	<path style="fill:#FFC900" d="M351.869,345.987h-44.692l103.925-179.974h-59.267L329.5,127.34   c0.034-0.023,148.639-0.023,148.639-0.023L351.869,345.987z" data-original="#75C8FF" class="" data-old_color="#FFC100"/>
	<polygon style="fill:#FFC900" points="256,434.608 284.831,384.683 329.523,384.683 256,512 130.526,294.707 152.872,256.011  " data-original="#75C8FF" class="" data-old_color="#FFC100"/>
	<polygon style="fill:#FFC900" points="284.831,127.317 307.177,166.013 100.898,166.013 130.514,217.293 108.169,255.989    33.86,127.317  " data-original="#75C8FF" class="" data-old_color="#FFC100"/>
</g></g> </svg>
