<svg enable-background="new 0 0 512 512" height="512" viewBox="0 0 512 512" width="512" xmlns="http://www.w3.org/2000/svg"><path d="m255.955 0-125.45 217.287h-22.343v38.698l-74.302 128.698h250.971v22.756l44.692-22.756h148.617l-126.302-218.672v-22.756l-22.337-15.916zm.045 77.392 28.83 49.927v27.318l22.345 11.378 103.927 179.973h-59.233v-22.756l-44.692 22.756h-206.279l29.615-51.286h22.345v-38.696z" fill="#c08b2b"/><g fill="#ffc900"><path d="m351.869 345.987h-44.692l103.925-179.974h-59.267l-22.335-38.673c.034-.023 148.639-.023 148.639-.023z"/><path d="m256 434.608 28.831-49.925h44.692l-73.523 127.317-125.474-217.293 22.346-38.696z"/><path d="m284.831 127.317 22.346 38.696h-206.279l29.616 51.28-22.345 38.696-74.309-128.672z"/></g></svg>