<svg height="422" width="422" xmlns="http://www.w3.org/2000/svg"><path d="m0 0v422h422v-422z" fill="#010101"/><path d="m173 8v1c3.224 2.2712 6.17 4.8602 8.606 8 19.857 25.5852-17.319 48.6254-28.349 67-5.703 9.5005-7.536 21.083-5.818 32 5.249 33.346 35.796 56.637 63.561 71.691 22.566 12.235 49.453 27.445 56.24 54.309 2.777 10.992-1.678 20.422-3.24 31 11.797-8.302 21.043-18.493 35-23.564 29.477-10.709 60.769 6.345 72 34.564h1c12.307-18.258 22.265-39.484 21.981-62-.464-36.862-33.277-78.201-71.981-79-4.352 20.805-21.218 25.894-40 20.572-27.327-7.744-48.809-27.913-66-49.572 10.344 0 20.811.077 30-5.479 17.245-10.4266 15.246-34.4486 6.073-49.521-11.928-19.5998-34.869-32.676-55.073-42.2191-7.502-3.5435-15.646-8.04695-24-8.7809z" fill="#f1b311"/><path d="m191 14 1 1zm-9 3 1 1z" fill="#ff8101"/><path d="m216 27 1 1z" fill="#fffc01"/><path d="m228 35 1 1z" fill="#ff8101"/><path d="m232 38 1 1z" fill="#fffc01"/><path d="m184 43 1 1z" fill="#ff8101"/><path d="m239 44 1 1zm5 5 1 1zm-65 4 1 1zm-18 21 1 1z" fill="#fffc01"/><path d="m152 85 1 1z" fill="#ff8101"/><path d="m150 89 1 1zm97 18 1 1z" fill="#fffc01"/><path d="m239 111 1 1zm-12 17 1 1z" fill="#ff8101"/><path d="m228 129 1 1zm4 4 1 1zm-79 1 1 1z" fill="#fffc01"/><path d="m55 136c-28.8428 42.789-31.1721 97.727 16 128.996 10.2746 6.811 21.5263 11.97 34 12.004 2.942-19.905 20.576-25.44 38-20.844 26.065 6.875 52.789 27.1 67 49.844-9.681 0-20.53.215-29 5.559-17.651 11.138-15.622 36.016-5.251 51.441 16.573 24.647 49.701 41.02 77.251 50-4.734-8.882-13.165-13.631-12.946-25 .417-21.617 20.401-33.443 31.645-49.004 8.402-11.627 9.826-26.382 6.406-39.996-9.598-38.204-46.31-56.023-77.105-74.601-19.552-11.795-41.48-29.626-42.791-54.399-.402-7.59 2.841-14.852 4.791-22-10.881 5.067-18.709 15.56-30 20.688-23.633 10.731-49.525 4.19-66.9066-14.688-5.0546-5.49-7.2351-11.899-11.0934-18z" fill="#c5970b"/><path d="m53 138 1 1zm3 0 1 1zm-5 3 1 1z" fill="#fffc01"/><path d="m57 141 1 1zm100 0 1 1zm-109 5 1 1z" fill="#ff8101"/><path d="m249 147 1 1zm94 1 1 1z" fill="#fffc01"/><path d="m162 150c-1.599 6.911-4.441 13.757-3.826 21 3.16 37.237 41.879 51.345 68.826 68.692 14.02 9.026 24.861 20.085 37 31.308 21.995-49.681-38.501-72.513-70-94.029-11.051-7.548-20.493-21.145-32-26.971z" fill="#010101"/><path d="m347 150 1 1zm-92 1 1 1zm-94 1 1 1zm5 1 1 1zm94 1 1 1zm-100 1 1 1zm153 5 1 1zm49 0 1 1zm-289 1 1 1z" fill="#fffc01"/><path d="m40 162 1 1z" fill="#ff8101"/><path d="m177 164 1 1zm129 0 1 1z" fill="#fffc01"/><path d="m82 167 1 1z" fill="#f1b311"/><path d="m183 169 1 1z" fill="#ff8101"/><path d="m191 175 1 1z" fill="#fffc01"/><path d="m194 177 1 1z" fill="#ff8101"/><path d="m379 178 1 1z" fill="#fffc01"/><path d="m197 179 1 1z" fill="#ff8101"/><path d="m381 181 1 1z" fill="#fffc01"/><path d="m207 185 1 1z" fill="#ff8101"/><path d="m384 186 1 1z" fill="#fffc01"/><path d="m385 188 1 1zm-352 1 1 1z" fill="#ff8101"/><path d="m163 189 1 1z" fill="#f1b311"/><path d="m386 190 1 1z" fill="#ff8101"/><path d="m230 198 1 1z" fill="#fffc01"/><path d="m236 202 1 1z" fill="#ff8101"/><path d="m174 204 1 1z" fill="#f1b311"/><path d="m391 204 1 1z" fill="#ff8101"/><path d="m240 205 1 1z" fill="#fffc01"/><path d="m176 206 1 1zm-141 10 1 1z" fill="#f1b311"/><path d="m188 216 1 1zm67 3 1 1z" fill="#fffc01"/><path d="m207 228 1 1z" fill="#f1b311"/><path d="m209 229 1 1z" fill="#fffc01"/><path d="m262 229 1 1z" fill="#ff8101"/><path d="m264 233 1 1z" fill="#fffc01"/><path d="m220 235 1 1z" fill="#ff8101"/><path d="m48 243 1 1z" fill="#fffc01"/><path d="m310 246 1 1z" fill="#ff8101"/><path d="m293 251 1 1zm48 0 1 1zm2 1 1 1z" fill="#fffc01"/><path d="m246 253 1 1zm-121 1 1 1zm-65 2 1 1z" fill="#f1b311"/><path d="m118 256 1 1zm-57 1 1 1z" fill="#fffc01"/><path d="m116 257 1 1z" fill="#ff8101"/><path d="m112 260 1 1zm-1 1 1 1zm245 0 1 1zm-84 4 1 1z" fill="#fffc01"/><path d="m167 266 1 1zm-60 1 1 1z" fill="#ff8101"/><path d="m262 269 1 1z" fill="#f1b311"/><path d="m105 273 1 1z" fill="#ff8101"/><path d="m378 273 1 1zm-110 4 1 1z" fill="#fffc01"/><path d="m188 281 1 1z" fill="#ff8101"/><path d="m373 281 1 1z" fill="#fffc01"/><path d="m271 282 1 1z" fill="#ff8101"/><path d="m274 288 1 1z" fill="#fffc01"/><path d="m276 293 1 1zm2 7 1 1z" fill="#ff8101"/><path d="m178 313 1 1z" fill="#f1b311"/><path d="m279 318 1 1z" fill="#ff8101"/><path d="m171 321 1 1z" fill="#fffc01"/><path d="m275 332 1 1z" fill="#ff8101"/><path d="m274 334 1 1zm-4 6 1 1z" fill="#fffc01"/><path d="m269 341 1 1zm-4 4 1 1z" fill="#f1b311"/><path d="m263 347 1 1zm-6 6 1 1z" fill="#fffc01"/><path d="m256 354 1 1z" fill="#f1b311"/><path d="m191 379 1 1z" fill="#fffc01"/><path d="m196 383 1 1z" fill="#ff8101"/><path d="m203 388 1 1z" fill="#fffc01"/><path d="m211 393 1 1zm7 4 1 1z" fill="#ff8101"/><path d="m243 401 1 1z" fill="#fffc01"/><path d="m241 408 1 1z" fill="#ff8101"/></svg>