<?xml version="1.0" standalone="yes"?>
<svg xmlns="http://www.w3.org/2000/svg" width="422" height="422">
    <path style="fill:#010101; stroke:none;" d="M0 0L0 422L422 422L422 0L0 0z" />
    <path style="fill:#f1b311; stroke:none;"
        d="M173 8L173 9C176.224 11.2712 179.17 13.8602 181.606 17C201.463 42.5852 164.287 65.6254 153.257 84C147.554 93.5005 145.721 105.083 147.439 116C152.688 149.346 183.235 172.637 211 187.691C233.566 199.926 260.453 215.136 267.24 242C270.017 252.992 265.562 262.422 264 273C275.797 264.698 285.043 254.507 299 249.436C328.477 238.727 359.769 255.781 371 284L372 284C384.307 265.742 394.265 244.516 393.981 222C393.517 185.138 360.704 143.799 322 143C317.648 163.805 300.782 168.894 282 163.572C254.673 155.828 233.191 135.659 216 114C226.344 114 236.811 114.077 246 108.521C263.245 98.0944 261.246 74.0724 252.073 59C240.145 39.4002 217.204 26.324 197 16.7809C189.498 13.2374 181.354 8.73395 173 8z" />
    <path style="fill:#ff8101; stroke:none;" d="M191 14L192 15L191 14M182 17L183 18L182 17z" />
    <path style="fill:#fffc01; stroke:none;" d="M216 27L217 28L216 27z" />
    <path style="fill:#ff8101; stroke:none;" d="M228 35L229 36L228 35z" />
    <path style="fill:#fffc01; stroke:none;" d="M232 38L233 39L232 38z" />
    <path style="fill:#ff8101; stroke:none;" d="M184 43L185 44L184 43z" />
    <path style="fill:#fffc01; stroke:none;"
        d="M239 44L240 45L239 44M244 49L245 50L244 49M179 53L180 54L179 53M161 74L162 75L161 74z" />
    <path style="fill:#ff8101; stroke:none;" d="M152 85L153 86L152 85z" />
    <path style="fill:#fffc01; stroke:none;" d="M150 89L151 90L150 89M247 107L248 108L247 107z" />
    <path style="fill:#ff8101; stroke:none;" d="M239 111L240 112L239 111M227 128L228 129L227 128z" />
    <path style="fill:#fffc01; stroke:none;"
        d="M228 129L229 130L228 129M232 133L233 134L232 133M153 134L154 135L153 134z" />
    <path style="fill:#c5970b; stroke:none;"
        d="M55 136C26.1572 178.789 23.8279 233.727 71 264.996C81.2746 271.807 92.5263 276.966 105 277C107.942 257.095 125.576 251.56 143 256.156C169.065 263.031 195.789 283.256 210 306C200.319 306 189.47 306.215 181 311.559C163.349 322.697 165.378 347.575 175.749 363C192.322 387.647 225.45 404.02 253 413C248.266 404.118 239.835 399.369 240.054 388C240.471 366.383 260.455 354.557 271.699 338.996C280.101 327.369 281.525 312.614 278.105 299C268.507 260.796 231.795 242.977 201 224.399C181.448 212.604 159.52 194.773 158.209 170C157.807 162.41 161.05 155.148 163 148C152.119 153.067 144.291 163.56 133 168.688C109.367 179.419 83.475 172.878 66.0934 154C61.0388 148.51 58.8583 142.101 55 136z" />
    <path style="fill:#fffc01; stroke:none;"
        d="M53 138L54 139L53 138M56 138L57 139L56 138M51 141L52 142L51 141z" />
    <path style="fill:#ff8101; stroke:none;"
        d="M57 141L58 142L57 141M157 141L158 142L157 141M48 146L49 147L48 146z" />
    <path style="fill:#fffc01; stroke:none;" d="M249 147L250 148L249 147M343 148L344 149L343 148z" />
    <path style="fill:#010101; stroke:none;"
        d="M162 150C160.401 156.911 157.559 163.757 158.174 171C161.334 208.237 200.053 222.345 227 239.692C241.02 248.718 251.861 259.777 264 271C285.995 221.319 225.499 198.487 194 176.971C182.949 169.423 173.507 155.826 162 150z" />
    <path style="fill:#fffc01; stroke:none;"
        d="M347 150L348 151L347 150M255 151L256 152L255 151M161 152L162 153L161 152M166 153L167 154L166 153M260 154L261 155L260 154M160 155L161 156L160 155M313 160L314 161L313 160M362 160L363 161L362 160M73 161L74 162L73 161z" />
    <path style="fill:#ff8101; stroke:none;" d="M40 162L41 163L40 162z" />
    <path style="fill:#fffc01; stroke:none;" d="M177 164L178 165L177 164M306 164L307 165L306 164z" />
    <path style="fill:#f1b311; stroke:none;" d="M82 167L83 168L82 167z" />
    <path style="fill:#ff8101; stroke:none;" d="M183 169L184 170L183 169z" />
    <path style="fill:#fffc01; stroke:none;" d="M191 175L192 176L191 175z" />
    <path style="fill:#ff8101; stroke:none;" d="M194 177L195 178L194 177z" />
    <path style="fill:#fffc01; stroke:none;" d="M379 178L380 179L379 178z" />
    <path style="fill:#ff8101; stroke:none;" d="M197 179L198 180L197 179z" />
    <path style="fill:#fffc01; stroke:none;" d="M381 181L382 182L381 181z" />
    <path style="fill:#ff8101; stroke:none;" d="M207 185L208 186L207 185z" />
    <path style="fill:#fffc01; stroke:none;" d="M384 186L385 187L384 186z" />
    <path style="fill:#ff8101; stroke:none;" d="M385 188L386 189L385 188M33 189L34 190L33 189z" />
    <path style="fill:#f1b311; stroke:none;" d="M163 189L164 190L163 189z" />
    <path style="fill:#ff8101; stroke:none;" d="M386 190L387 191L386 190z" />
    <path style="fill:#fffc01; stroke:none;" d="M230 198L231 199L230 198z" />
    <path style="fill:#ff8101; stroke:none;" d="M236 202L237 203L236 202z" />
    <path style="fill:#f1b311; stroke:none;" d="M174 204L175 205L174 204z" />
    <path style="fill:#ff8101; stroke:none;" d="M391 204L392 205L391 204z" />
    <path style="fill:#fffc01; stroke:none;" d="M240 205L241 206L240 205z" />
    <path style="fill:#f1b311; stroke:none;" d="M176 206L177 207L176 206M35 216L36 217L35 216z" />
    <path style="fill:#fffc01; stroke:none;" d="M188 216L189 217L188 216M255 219L256 220L255 219z" />
    <path style="fill:#f1b311; stroke:none;" d="M207 228L208 229L207 228z" />
    <path style="fill:#fffc01; stroke:none;" d="M209 229L210 230L209 229z" />
    <path style="fill:#ff8101; stroke:none;" d="M262 229L263 230L262 229z" />
    <path style="fill:#fffc01; stroke:none;" d="M264 233L265 234L264 233z" />
    <path style="fill:#ff8101; stroke:none;" d="M220 235L221 236L220 235z" />
    <path style="fill:#fffc01; stroke:none;" d="M48 243L49 244L48 243z" />
    <path style="fill:#ff8101; stroke:none;" d="M310 246L311 247L310 246z" />
    <path style="fill:#fffc01; stroke:none;"
        d="M293 251L294 252L293 251M341 251L342 252L341 251M343 252L344 253L343 252z" />
    <path style="fill:#f1b311; stroke:none;"
        d="M246 253L247 254L246 253M125 254L126 255L125 254M60 256L61 257L60 256z" />
    <path style="fill:#fffc01; stroke:none;" d="M118 256L119 257L118 256M61 257L62 258L61 257z" />
    <path style="fill:#ff8101; stroke:none;" d="M116 257L117 258L116 257z" />
    <path style="fill:#fffc01; stroke:none;"
        d="M112 260L113 261L112 260M111 261L112 262L111 261M356 261L357 262L356 261M272 265L273 266L272 265z" />
    <path style="fill:#ff8101; stroke:none;" d="M167 266L168 267L167 266M107 267L108 268L107 267z" />
    <path style="fill:#f1b311; stroke:none;" d="M262 269L263 270L262 269z" />
    <path style="fill:#ff8101; stroke:none;" d="M105 273L106 274L105 273z" />
    <path style="fill:#fffc01; stroke:none;" d="M378 273L379 274L378 273M268 277L269 278L268 277z" />
    <path style="fill:#ff8101; stroke:none;" d="M188 281L189 282L188 281z" />
    <path style="fill:#fffc01; stroke:none;" d="M373 281L374 282L373 281z" />
    <path style="fill:#ff8101; stroke:none;" d="M271 282L272 283L271 282z" />
    <path style="fill:#fffc01; stroke:none;" d="M274 288L275 289L274 288z" />
    <path style="fill:#ff8101; stroke:none;" d="M276 293L277 294L276 293M278 300L279 301L278 300z" />
    <path style="fill:#f1b311; stroke:none;" d="M178 313L179 314L178 313z" />
    <path style="fill:#ff8101; stroke:none;" d="M279 318L280 319L279 318z" />
    <path style="fill:#fffc01; stroke:none;" d="M171 321L172 322L171 321z" />
    <path style="fill:#ff8101; stroke:none;" d="M275 332L276 333L275 332z" />
    <path style="fill:#fffc01; stroke:none;" d="M274 334L275 335L274 334M270 340L271 341L270 340z" />
    <path style="fill:#f1b311; stroke:none;" d="M269 341L270 342L269 341M265 345L266 346L265 345z" />
    <path style="fill:#fffc01; stroke:none;" d="M263 347L264 348L263 347M257 353L258 354L257 353z" />
    <path style="fill:#f1b311; stroke:none;" d="M256 354L257 355L256 354z" />
    <path style="fill:#fffc01; stroke:none;" d="M191 379L192 380L191 379z" />
    <path style="fill:#ff8101; stroke:none;" d="M196 383L197 384L196 383z" />
    <path style="fill:#fffc01; stroke:none;" d="M203 388L204 389L203 388z" />
    <path style="fill:#ff8101; stroke:none;" d="M211 393L212 394L211 393M218 397L219 398L218 397z" />
    <path style="fill:#fffc01; stroke:none;" d="M243 401L244 402L243 401z" />
    <path style="fill:#ff8101; stroke:none;" d="M241 408L242 409L241 408z" />
</svg>
